<mxfile host="app.diagrams.net" agent="Mozilla/5.0 (Windows NT 10.0; Win64; x64) AppleWebKit/537.36 (KHTML, like Gecko) Chrome/136.0.0.0 Safari/537.36" version="27.0.5">
  <diagram name="Trang-1" id="0vmelJesmYTW9ooBjKLl">
    <mxGraphModel dx="4975" dy="992" grid="1" gridSize="10" guides="1" tooltips="1" connect="1" arrows="1" fold="1" page="1" pageScale="1" pageWidth="3300" pageHeight="4681" math="0" shadow="0">
      <root>
        <mxCell id="0" />
        <mxCell id="1" parent="0" />
        <mxCell id="8tRjgfwP2t_pltceduXx-2" value="" style="rounded=0;whiteSpace=wrap;html=1;fillColor=light-dark(#c00000, #C00000);gradientColor=none;strokeColor=none;fillStyle=solid;" vertex="1" parent="1">
          <mxGeometry x="-180" y="80" width="530" height="530" as="geometry" />
        </mxCell>
        <mxCell id="8tRjgfwP2t_pltceduXx-1" value="" style="shape=image;verticalLabelPosition=bottom;labelBackgroundColor=default;verticalAlign=top;aspect=fixed;imageAspect=0;image=data:image/png,iVBORw0KGgoAAAANSUhEUgAAAWEAAAFhCAMAAACWIevlAAAAAXNSR0IArs4c6QAAAARnQU1BAACxjwv8YQUAAAKaUExURcAAAMAAAMkbANxUAPCTAM0nAMEDANAxAN9gAO6OAP68AP/AAMgZAMMLANM5AOJnAPGVAPy2AMIHAMIGANEzAOZ1APmuAPeoANU/AOh7APy3AMcVANtTAO+QAPu1AMkcAN1aAPKYAP6+AMQMAOBgAPu0AMMJAMcWAN5bAPSgAMgYANlLAMshANQ8AOqBAM4qAMUPANAwANpPAPObANM7AOd2ANZEANhIAMYSAO2KAORvAPKXAOyIAMMKAN9dAPqxAPWhAMwjAOd3AP27ANQ9AM8uAPepANdIAN5aAOBhAMQLAOFmAMgXAOVxAPGUAOuDAModAOp/AMkaAOl8AO2IAMcXAOh4APqwAMYTAN9fAO+OAPenANZFAPSfAMABAOVwANdHANtSAOh6ANE0APWjAPmtAMofAOuFANI2AMoeAN5cAONsANdFAOuCAMACANVAAM0mAPSdAOl+AOd4AMwkAOh5AOd1ANE1AP24AOZzAP69ANZDAPOcANVBAPCUAOFlAPy1AONqAPakANpQAN1ZANM6AONrAMQNAOyHANU+AOVvANpOAMYRAPWgAPKZAORuAPWiAPajAPOaANI1APirAAAAADAAAPuzAPipANlOAPuyANxWAO6NAPamAPGWAP25APqyAMQOAMsgANdGAO2JAORtAOqAANI3APCSAOFkAOFjAMwlAPmvAPemAOJoAP26AOBjANxVAOuEAPalANtRAOVyAN1XAOZ0AMECAO+PAPSeANZCAM0pAOp+AN1YANEyAOBiAM8vANxXAPCRANlNAO6MAMwmAPKaAMIIAMkdAJAAAGAAADMIAD0pAEAwAH9gAL+QAP+/ANlMAOZyAP++AKZDALBjANVCAO6LANhJAMcUAOl7AMogADcUAFE/14cAAAABdFJOU/4a4wd9AAAACXBIWXMAADLAAAAywAEoZFrbAAANfUlEQVR4Xu3d+WMcZRnAcdMLJFisTZrSWrHQchRa2gq0BbEgCpWCgKCAcmO5igJtES314MYroJZ6VUREBQWioKigKN6mmsT7/l/MbL5Jkz3eeWd2n+d9pjyfX6yz786875fJ7G6y2bzCietyorywNC8szQtL88LSvLA0LyzNC0vzwtK8sDQvLM0LS/PC0rywNC8szQtL88LSvLA0LyzNC0vzwtK8sDQvLM0LS/PC0rywNC8szQtL88LSvLA0LyzNC0vzwtK8sDQvLM0LS/PC0rywNC8szQtL88LSvLA0LyzNC0vzwtIqWnja9Bkz+ad1FSw8a7/9X3lAd/eB/F/rqlb4VbMPenV3Zs5r2GJdpQrP7emdV8s7qo9t5lWn8Kz5By+gbsYLd9jC1y4iLV7HDeZVo/Ahr19M2AmH+nW4cw5bspSskx3OrdbZL3zEkUfRdKpl3G6d9cJzj667/k44hhHWGS+8fAU9Gx3LEOtMF155MDWbWcUg6wwXnrX6DcRs6jiGWWe38LHHk7KFExhnndnCa5o9Q5tsOgOtM1p47To6tnYiQ62zWfiEk8gY8EbGWmex8MlvWk/FkFMYbZ3Bwqe+mYZhpy1kvHH2Cr+l1Yu4em/lDsaZK7z6dALmOoN7GGet8Ia8J2l7vY27GGer8JkbqRfjYO5knKnCZ51NvChv517GWSp82AzaxVkwl/vZZqjwMeeQLtZs7mibncLnnke4aNV4qDNT+B3n0y3eBdzVNiuF3/kushVw4Vnc2TQjhS/qpVoh87m3aUYKh35c1NpG7m2ajcIXk6ygd3N300wUXj35DWkFzDmXHVhmofD891CssEvYg2UGCi+ceMdqYb3swrL0hQ+/lFwlVOGFc/LCl11OrVKuYC+GJS98Ja3KuYq9GJa68NXvpVU5m65hP3YlLnzEtaQq60p2ZFfiwgcRqrRr2ZFdaQtfR6c2mP+ZftLC14/9alxbbmBfZiUtvJlK7biUfZmVsvDsC6nUlhvZm1UJC5/5Phq155z3sz+jEhaeTqJ23cT+jEpX+OZbKNSuLezQqHSFtxKofdvYo03JCvd05GGu5lZ2aVOywh8gTwcsuI19mpSq8HEfJE8nfIidmpSqcOzbsKNsn8ZeLUpU+HbadMhVs9ivQYkK7yBNpxh+b0qawh8mTMd85BD2bE+awuXe4hPyUfZsT5LCqz5Gl87ZdB37NidJ4TvI0knnWf3cnxSFr7mTKh11F3u3JkXhu2nSWYuNfixNisJ9NOmwrezemASF76FIx9n8yX6CwvcSpOPuNPl8Qr/wfZ1+PbfX/RY/MVe/8MfJIeFejmGJfuFPUEPC9k9yEEPUC3/q09QQcdR+HMYO9cI9tBDSb+77mOqFO/E+n5AHrH2mq3rhDrxVLczad9m0C888lBByjuRQRmgXvosMgubYem2nXfhWMkjatIaDmaBc+OQHqSDqM5Z+bKdcWPi52rjPfo7jGaBcuFPvt8yz83oOmJ5y4ZzPFO6cxcs5YnLKhcWfDU84xcp748sVfijGLgZPsvbzrF/BF77IQRPTLbwfq1fxpS9z1LR0C69m8TpOu9jCt4F0C5/I2rVs5rgp6RbuZ+Vqdq/lyOnoFv4KC9fzcPI/KqFa+L6vsm5Fj+z/NY6eiGrhR1m1rvPT/gUl1cJXs2Zli7/O8ZNQLXwjS9a2fUnCp22qhY9kxfoeS/f9TNXCD7DeBOZ8I9VvjqoWvp/lJrH+aGahTLVw/p+TEvXNbzEPVaqFH2epqcx7IsGvNqoWVn/R3KB/g/qvhakWPoV1pnTLxY8yGyWqhYV+vaCgB7/9HeajQrXwk6wxtaeeVnwhrVqYBRow0Kv2x4hfpoVH7fyuzhML1cIxf5xS0QEXfE/hd/Beho90kw08s1z6/cYv88Kjtj+8ZJXkh52rFn6YRZmzYN2GIt8Ymju791n+mU+1cEc/3KfTlq7YuObYw5hpS2t7vr9590B3t9HCu1mMYetn/OC52dc3fqjxwmXb5r9pS//En2ZZxPZ8qoU79zGB8pb29c1YtG7r1nWLdvTtZNsk8X+kVLXwD5nePuBplpRPtbDY74zre44l5VMtvITp7QPi3zurWlj3jYGi4j9qU7XwbUxvH3AqS8qnWnga09sHxL/jULXwj05nfpV34WUsKZ9q4a4fM8HKe54FRdAt3MGPdU5rNwuKoFv4BiZYeeezoAi6hV9ggpV3BwuKoFv4J0yw8u5mQRF0C6+cwwyr7gwWFEG38D7zZKLAT6qVCz/NDCvuzpNZTwTlwjcxxYr7KcuJoVx4mbEf6Jf0IsuJoVy46zHmWG0/YzUxtAv/nDlW2lO5PzCdRLuw2IcPa1rBYqJoF76oyU8VK6fQJ7ppF67CT/RzFXpvrHrhDcyywnaylDjqhV86gHlWV7FP1lQvvA88X7ualcTRL/wL5llZvyz2S9L6hbc9wkyragkLiaRfuOs8ZlpR219iHZESFP4VU62oX7OMWAkKHz7AXKtpA8uIlaBwVy9zraSdv2EVsVIUrvTPQy9nEdFSFJ41j9lWUeHfD0tRuMpPiYv8dGNMksLLfst8q+d2lhAvSeGEH6nUpt2/YwXx0hT+/fPMuGpK/CGKNIWr+vsG80r88miSwoN7/vDHIUY9NDQ0PDzCCtSMDA8NlZhBgTdTTVAvPLhrF7dPNTzMKsSN7G07RX7mx49gEUXoFh5sXnecwrk80rzuuPB/59UsoxDFwjl5x8SeyQwPG2LwuJy8Y1rPYAcLKUatcFTfTNzlgsFhUwtH9c20msElLKUYpcLRfTMxjRkaNrlwdN+aZjPYEv/bMZPpFN7Dplj5iRkYNqnwMJtiNT4kLLiHxRSkUbjQCYy8xgwLmyhc7AQeUz+DLaymKIXCRU/gMfWPUnUYFTa+j6InMKacxv03s5yi5AuXCzwqeBozJozCJQNPmcGf/jy2muLEC5e4QowLJWZI2Fjh0oEnz+AvtcWUIV24jcDBxIwIqxUucQnea3wG61fW1l2GcOG2AocSMyAsK9zGGZwZm8Ff2/j8bdnCpa/B41om5vaw0cJtBmYGZ7PuMkQLtx24dWJuDhtqP3BtBvPKXyOEC/OPtrRIzK1hQ3HDcgxveoFllyJZuAOn8Kjm32/jxrChDpzCo/7GqsuRLMz/tokntXW4MaytpxGTsOpyBAt3StPrBLfp4LVTORUo3PQ6wU1KBll3GVUo3Ow6wU1aWHcZVSjc7CTmFi17WHgJlSjc5CTmFjUsvIRKFG5yEnODmvJX4moUbjyJuUFN+acT1SjceBKzXU/pk7gihRtOYrbrKX0SaxbeNciJMLin6AvqzhQeGhoZ+2IYGS7+enps6sWpFd5V92VWsHH9ZYLNRdT9+HikYOSylwmlwvV9M4Uat1242WvvQo3LPiXWKdziv3+B7w3VXybYHGuo4aGypkjishdijcKt5xZ/GrdXuNX38btHGBCDORelUDj05RV/FpNkHFvjtAxcKHHJC7F84fD1Kzpx3Zc5W6MEAhdJbLVwzgPEIMNylS8cDFzgWlzyoU66cO7jQ+xJXNeJrRFyAse/oaLkQ510Ye7QWuxJXPdQx9Z8Da9VGsReJ2wWjvjKijyJyxbOPYWjT2KThWMuXZEnccnCEYFjT+LKFo7cWcnCDA+KvUww34JEC8c9+sZdJsoVjjmFoy8TzLcgA4XjXth54WYYnSPyQkwNsDEPo3NEXiaYb0GSheNOYcnCcadw998ZnoP5FmSgcOTeqAE25ogqvGhb5AyYbkGShWNfyDM8Bz3AxhzNv2c5xTP/iJ7B2GyLkizM4FwMz0ERsDEHg1v7579qn2fA8By1yRZmoXDc0zWagI05GNxK/xo+wjJuBmNji6pO4SVL6VLDxhwMbmpg60yOX9nC0a8yI9f37zP+8yR1IgvXPYeebNGL/+XoGS+cyUaunN5PITaGtSo8sKKnduAJXjjD4FVPnJRFYmNY08LPHn/FgexrghfOMHhUz+YdZQuv753d7MOQvHCGwWPWsjFsauGBGRt7Wnz8tRfOMBhsDNtbuG/L9JmBDxf3whkGg41hWeG+3b0bluf9dWUvnGEw2Bj2v+umxX0qvhfOMBhsDBOdQSwvnPHCGQaDjWFeGF64EYcM88I1XjjjhTMMBhvDvDC8cCMOGeaFa7xwxgtnGAw2hnlheOFGHDLMC9d44YwXzjAYbAzzwvDCjThkmBeu8cIZL5xhMNgY5oXhhRtxyDAvXOOFM144w2CwMcwLwws34pBhXrjGC2e8cIbBYGOYF4YXbsQhw7xwjRfOeOEMg8HGMC8ML9yIQ4Z54RovnPHCGQaDjWFeGF64EYcM88I1XjjjhTMMBhvDvDC8cCMOGeaFa7xwxgtnGAw2hnlheOFGHDLMC9d44YwXzjAYbAzzwvDCrh1eWJoXluaFpXlhaV5YmheW5oWleWFpXliaF5bmhaV5YWleWJoXluaFpXlhaV5YmheW5oWleWFpXliaF5bmhaV5YWleWJoXluaFpXlhaV5YmheW5oWleWFpXliaF5bmhaV5YWleWJoXluaFpXlhaV5YmheW5oWleWFpXliaF5bmhaV5YWleWJoXluaFpXlhaV5YmheW5oWleWFZXV3/BxyBkEqKaVUDAAAAAElFTkSuQmCC;" vertex="1" parent="1">
          <mxGeometry x="-91.5" y="168.5" width="353" height="353" as="geometry" />
        </mxCell>
      </root>
    </mxGraphModel>
  </diagram>
</mxfile>
